<svg width="28.508362" height="21.220947" viewBox="0 0 28.5084 21.2209" fill="none" xmlns="http://www.w3.org/2000/svg" xmlns:xlink="http://www.w3.org/1999/xlink">
	<desc>
			Created with Pixso.
	</desc>
	<defs/>
	<path id="Vector" d="M0.47 11.75C0.17 11.45 0 11.05 0 10.63C0 10.2 0.17 9.8 0.47 9.5L9.6 0.48C9.75 0.33 9.93 0.21 10.13 0.12C10.32 0.04 10.53 0 10.75 6.1e-5C10.96 -0.01 11.18 0.03 11.37 0.11C11.57 0.19 11.75 0.31 11.9 0.46C12.06 0.61 12.18 0.79 12.26 0.99C12.34 1.18 12.38 1.39 12.38 1.6C12.38 1.81 12.33 2.02 12.25 2.22C12.16 2.41 12.04 2.59 11.88 2.74L5.51 9.03L26.89 9.03C27.32 9.03 27.73 9.2 28.03 9.5C28.33 9.8 28.5 10.2 28.5 10.63C28.5 11.05 28.33 11.45 28.03 11.75C27.73 12.05 27.32 12.22 26.89 12.22L5.51 12.22L11.88 18.51C12.18 18.82 12.34 19.22 12.34 19.64C12.33 20.05 12.16 20.45 11.86 20.75C11.57 21.04 11.16 21.21 10.74 21.22C10.31 21.22 9.91 21.06 9.6 20.77L0.47 11.75Z" fill="#FFFFFF" fill-opacity="1.000000" fill-rule="nonzero"/>
</svg>
