<svg width="28.508362" height="21.220947" viewBox="0 0 28.5084 21.2209" fill="none" xmlns="http://www.w3.org/2000/svg" xmlns:xlink="http://www.w3.org/1999/xlink">
	<desc>
			Created with Pixso.
	</desc>
	<defs/>
	<path id="Vector" d="M28.03 11.75C28.33 11.45 28.5 11.05 28.5 10.63C28.5 10.2 28.33 9.8 28.03 9.5L18.9 0.48C18.75 0.33 18.57 0.21 18.37 0.12C18.18 0.04 17.96 0 17.75 6.1e-5C17.54 -0.01 17.32 0.03 17.12 0.11C16.93 0.19 16.75 0.31 16.59 0.46C16.44 0.61 16.32 0.79 16.24 0.99C16.16 1.18 16.12 1.39 16.12 1.6C16.12 1.81 16.17 2.02 16.25 2.22C16.34 2.41 16.46 2.59 16.61 2.74L22.99 9.03L1.61 9.03C1.18 9.03 0.77 9.2 0.47 9.5C0.17 9.8 0 10.2 0 10.63C0 11.05 0.17 11.45 0.47 11.75C0.77 12.05 1.18 12.22 1.61 12.22L22.99 12.22L16.61 18.51C16.32 18.82 16.16 19.22 16.16 19.64C16.16 20.05 16.33 20.45 16.63 20.75C16.93 21.04 17.34 21.21 17.76 21.22C18.18 21.22 18.59 21.06 18.9 20.77L28.03 11.75Z" fill="#FFFFFF" fill-opacity="1.000000" fill-rule="nonzero"/>
</svg>
